# xmcd
#
# Track frame offsets:
#	150
#	21420
#	29555
#	52092
#	67377
#	79252
#	92707
#	98242
#	109667
#	121192
#	135825
#	148065
#	154447
#	172492
#	178820
#	183417
#	193352
#	207302
#
# Disc length: 3023 seconds
#
# Revision: 0
# Processed by: cddbd v1.5.2PL0 Copyright (c) Steve Scherf et al.
# Submitted via: EasyCDDAExtractor 16.1.0.1
#
DISCID=1c0bcd12
DTITLE=Ennio Morricone - Crime And Dissonance 1/2
DYEAR=2005
DGENRE=
TTITLE0=Giorno Di Notte
TTITLE1=Astratto 3
TTITLE2=Corsa Sui Tetti
TTITLE3=Ric Happening
TTITLE4=Memento
TTITLE5=Ricreazione Divertita
TTITLE6=Studio Di Colore
TTITLE7=Forza G (Quella Donna)
TTITLE8=Placcaggio
TTITLE9=Seguita
TTITLE10=Postludio Alla Terza Moglie
TTITLE11=L'Uccello Con Le Piume Di Cristallo (Titoli)
TTITLE12=Il Buio
TTITLE13=Rapimento In Campo Aperto
TTITLE14=Le Fotografie
TTITLE15=Spiriti
TTITLE16=Ninna Nanna Per Adulteri
TTITLE17=Astrazione Con Ritmo
EXTD=
EXTT0=
EXTT1=
EXTT2=
EXTT3=
EXTT4=
EXTT5=
EXTT6=
EXTT7=
EXTT8=
EXTT9=
EXTT10=
EXTT11=
EXTT12=
EXTT13=
EXTT14=
EXTT15=
EXTT16=
EXTT17=
PLAYORDER=
